<svg width="150" height="40" viewBox="0 0 150 40" fill="none" xmlns="http://www.w3.org/2000/svg">
<path d="M6.41469 19.1687L15.7275 0.675293H11.2039C9.79004 0.675293 8.49993 1.47854 7.84663 2.75538C1.28226 15.7848 3.86582 13.889 6.41469 19.1687Z" fill="#090C52"/>
<path d="M7.83983 2.76855C4.12788 10.1334 3.86062 13.8718 6.40949 19.1532L11.0568 28.8023H5.57142C4.74819 28.8023 4.00085 28.3287 3.6445 27.589L0.363144 20.7932C-0.133432 19.769 -0.118584 18.5692 0.394489 17.545L7.83983 2.76855Z" fill="#4992FF"/>
<path d="M18.6572 20.8313L9.3444 39.3247H13.868C15.2819 39.3247 16.572 38.5215 17.2253 37.2446C23.7896 24.2152 21.2061 26.111 18.6572 20.8313Z" fill="#090C52"/>
<path d="M17.2321 37.2314C20.944 29.8666 21.2113 26.1282 18.6624 20.8468L14.0151 11.1977H19.5005C20.3237 11.1977 21.071 11.6713 21.4274 12.411L24.7088 19.2068C25.2053 20.231 25.1905 21.4308 24.6774 22.455L17.2321 37.2314Z" fill="#4992FF"/>
<path d="M40.137 30.3251C38.2877 30.3251 36.7318 29.9101 35.4693 29.0802C34.2068 28.2322 33.3177 27.0864 32.802 25.643L35.9494 23.7756C36.6784 25.7062 38.1099 26.6715 40.2437 26.6715C41.275 26.6715 42.0307 26.482 42.5108 26.1031C42.9909 25.7242 43.231 25.2461 43.231 24.6687C43.231 24.0011 42.9376 23.4869 42.3508 23.1261C41.764 22.7472 40.7149 22.3412 39.2034 21.9082C38.3677 21.6556 37.6564 21.403 37.0696 21.1504C36.5006 20.8978 35.9227 20.564 35.3359 20.149C34.7669 19.716 34.3312 19.1747 34.0289 18.5252C33.7267 17.8756 33.5755 17.1179 33.5755 16.2518C33.5755 14.5377 34.1712 13.1755 35.3626 12.1651C36.5717 11.1367 38.0209 10.6225 39.7102 10.6225C41.2217 10.6225 42.5464 11.0014 43.6844 11.7592C44.8402 12.4989 45.7382 13.5364 46.3784 14.8715L43.2843 16.6848C42.5375 15.061 41.3461 14.2491 39.7102 14.2491C38.9456 14.2491 38.341 14.4295 37.8965 14.7903C37.4697 15.1332 37.2563 15.5842 37.2563 16.1435C37.2563 16.739 37.4964 17.2261 37.9765 17.605C38.4744 17.9659 39.4168 18.3628 40.8038 18.7958C41.3728 18.9763 41.7996 19.1206 42.0841 19.2288C42.3864 19.3191 42.7865 19.4724 43.2843 19.6889C43.8 19.8874 44.1912 20.0769 44.4579 20.2573C44.7424 20.4377 45.0625 20.6813 45.4181 20.988C45.7738 21.2947 46.0405 21.6105 46.2183 21.9353C46.4139 22.26 46.574 22.657 46.6984 23.1261C46.8407 23.5771 46.9118 24.0733 46.9118 24.6146C46.9118 26.3647 46.2806 27.754 45.0181 28.7825C43.7733 29.8109 42.1463 30.3251 40.137 30.3251Z" fill="#1C1B1A"/>
<path d="M60.8797 28.2682C59.5105 29.6395 57.839 30.3251 55.8653 30.3251C53.8915 30.3251 52.22 29.6395 50.8508 28.2682C49.4994 26.879 48.8237 25.1829 48.8237 23.1802C48.8237 21.1775 49.4994 19.4905 50.8508 18.1192C52.22 16.7299 53.8915 16.0353 55.8653 16.0353C57.839 16.0353 59.5105 16.7299 60.8797 18.1192C62.2489 19.4905 62.9335 21.1775 62.9335 23.1802C62.9335 25.1829 62.2489 26.879 60.8797 28.2682ZM53.278 25.8595C53.9715 26.5632 54.8339 26.915 55.8653 26.915C56.8966 26.915 57.759 26.5632 58.4525 25.8595C59.146 25.1559 59.4927 24.2628 59.4927 23.1802C59.4927 22.0976 59.146 21.2045 58.4525 20.5009C57.759 19.7972 56.8966 19.4454 55.8653 19.4454C54.8339 19.4454 53.9715 19.7972 53.278 20.5009C52.6023 21.2045 52.2645 22.0976 52.2645 23.1802C52.2645 24.2628 52.6023 25.1559 53.278 25.8595Z" fill="#1C1B1A"/>
<path d="M65.354 29.9462V10.1895H68.7948V29.9462H65.354Z" fill="#1C1B1A"/>
<path d="M90.4282 19.7701V21.2316C90.4282 23.938 89.5747 26.1302 87.8676 27.8082C86.1606 29.4861 83.9556 30.3251 81.2528 30.3251C78.3722 30.3251 75.9805 29.3779 74.0779 27.4834C72.193 25.5709 71.2506 23.2434 71.2506 20.5009C71.2506 17.7403 72.1841 15.4038 74.0512 13.4913C75.9361 11.5787 78.2655 10.6225 81.0394 10.6225C82.782 10.6225 84.3735 11.0284 85.8138 11.8404C87.2541 12.6342 88.3744 13.6988 89.1746 15.0339L86.0272 16.8743C85.5827 16.0984 84.907 15.4669 84.0001 14.9798C83.111 14.4926 82.1152 14.2491 81.0127 14.2491C79.2346 14.2491 77.7676 14.8445 76.6118 16.0353C75.4737 17.2081 74.9047 18.6966 74.9047 20.5009C74.9047 22.2871 75.4826 23.7666 76.6384 24.9394C77.812 26.0941 79.359 26.6715 81.2795 26.6715C82.702 26.6715 83.8756 26.3557 84.8003 25.7242C85.7427 25.0747 86.3828 24.1906 86.7207 23.0719H81.0661V19.7701H90.4282Z" fill="#1C1B1A"/>
<path d="M101.818 16.4142H105.259V29.9462H101.818V28.4306C100.983 29.6936 99.658 30.3251 97.8442 30.3251C96.3861 30.3251 95.1769 29.8289 94.2167 28.8366C93.2743 27.8442 92.8031 26.473 92.8031 24.7229V16.4142H96.2439V24.2898C96.2439 25.192 96.4839 25.8866 96.964 26.3738C97.4441 26.8429 98.0843 27.0774 98.8844 27.0774C99.7735 27.0774 100.485 26.7978 101.018 26.2384C101.552 25.6791 101.818 24.8401 101.818 23.7215V16.4142Z" fill="#1C1B1A"/>
<path d="M111.851 18.7417C112.171 17.8756 112.696 17.2261 113.425 16.7931C114.172 16.3601 114.999 16.1435 115.906 16.1435V20.0408C114.856 19.9145 113.914 20.131 113.078 20.6903C112.26 21.2496 111.851 22.1788 111.851 23.4779V29.9462H108.411V16.4142H111.851V18.7417Z" fill="#1C1B1A"/>
<path d="M126.72 16.4142H130.161V29.9462H126.72V28.4306C125.884 29.6936 124.559 30.3251 122.746 30.3251C121.287 30.3251 120.078 29.8289 119.118 28.8366C118.176 27.8442 117.704 26.473 117.704 24.7229V16.4142H121.145V24.2898C121.145 25.192 121.385 25.8866 121.865 26.3738C122.346 26.8429 122.986 27.0774 123.786 27.0774C124.675 27.0774 125.386 26.7978 125.92 26.2384C126.453 25.6791 126.72 24.8401 126.72 23.7215V16.4142Z" fill="#1C1B1A"/>
<path d="M137.5 26.6715H143.421V29.9462H132.885V27.6187L138.513 19.6889H133.152V16.4142H143.154V18.7417L137.5 26.6715Z" fill="#1C1B1A"/>
<path d="M146.714 9.67529C147.343 9.67529 147.907 9.82358 148.406 10.1202C148.905 10.4058 149.295 10.8067 149.577 11.323C149.859 11.8282 150 12.3994 150 13.0365C150 13.6736 149.859 14.2503 149.577 14.7666C149.295 15.2828 148.905 15.6893 148.406 15.9859C147.907 16.2714 147.343 16.4142 146.714 16.4142C146.074 16.4142 145.505 16.2714 145.006 15.9859C144.507 15.6893 144.117 15.2828 143.835 14.7666C143.553 14.2503 143.412 13.6736 143.412 13.0365C143.412 12.3994 143.553 11.8282 143.835 11.323C144.117 10.8067 144.507 10.4058 145.006 10.1202C145.505 9.82358 146.074 9.67529 146.714 9.67529ZM146.714 15.7552C147.495 15.7552 148.124 15.5025 148.601 14.9973C149.089 14.492 149.333 13.8384 149.333 13.0365C149.333 12.2347 149.089 11.5811 148.601 11.0758C148.124 10.5705 147.495 10.3179 146.714 10.3179C145.922 10.3179 145.288 10.5705 144.811 11.0758C144.345 11.5811 144.111 12.2347 144.111 13.0365C144.111 13.8384 144.345 14.492 144.811 14.9973C145.288 15.5025 145.922 15.7552 146.714 15.7552ZM148.178 12.3445C148.178 12.6081 148.108 12.8333 147.967 13.0201C147.836 13.1958 147.652 13.3221 147.414 13.399L148.324 14.7666L147.3 14.7831L146.519 13.4649H146.242V14.7831H145.396V11.2406H146.958C147.327 11.2406 147.62 11.3394 147.836 11.5372C148.064 11.7349 148.178 12.004 148.178 12.3445ZM146.242 12.7564H146.909C147.029 12.7564 147.126 12.7235 147.202 12.6576C147.289 12.5917 147.332 12.4983 147.332 12.3775C147.332 12.2566 147.289 12.1688 147.202 12.1138C147.126 12.0479 147.029 12.015 146.909 12.015H146.242V12.7564Z" fill="#1C1B1A"/>
</svg>
